
<svg id="visual" viewBox="0 0 960 50" width="960" height="50" xmlns="http://www.w3.org/2000/svg" xmlns:xlink="http://www.w3.org/1999/xlink" version="1.1"><path d="M0 11L14.5 14.7C29 18.3 58 25.7 87.2 28.8C116.3 32 145.7 31 174.8 27.8C204 24.7 233 19.3 262 17.8C291 16.3 320 18.7 349 24C378 29.3 407 37.7 436.2 36.3C465.3 35 494.7 24 523.8 21.3C553 18.7 582 24.3 611 24.7C640 25 669 20 698 21.3C727 22.7 756 30.3 785.2 28.2C814.3 26 843.7 14 872.8 11.3C902 8.7 931 15.3 945.5 18.7L960 22L960 0L945.5 0C931 0 902 0 872.8 0C843.7 0 814.3 0 785.2 0C756 0 727 0 698 0C669 0 640 0 611 0C582 0 553 0 523.8 0C494.7 0 465.3 0 436.2 0C407 0 378 0 349 0C320 0 291 0 262 0C233 0 204 0 174.8 0C145.7 0 116.3 0 87.2 0C58 0 29 0 14.5 0L0 0Z" fill="#D3EDF3" stroke-linecap="round" stroke-linejoin="miter"></path></svg>