<svg id="visual" viewBox="0 0 960 50" width="960" height="50" xmlns="http://www.w3.org/2000/svg" xmlns:xlink="http://www.w3.org/1999/xlink" version="1.1"><path d="M0 7L14.5 9C29 11 58 15 87.2 16.3C116.3 17.7 145.7 16.3 174.8 13.7C204 11 233 7 262 12.5C291 18 320 33 349 35.3C378 37.7 407 27.3 436.2 19.5C465.3 11.7 494.7 6.3 523.8 10.5C553 14.7 582 28.3 611 34.8C640 41.3 669 40.7 698 35.7C727 30.7 756 21.3 785.2 18.7C814.3 16 843.7 20 872.8 20.7C902 21.3 931 18.7 945.5 17.3L960 16L960 51L945.5 51C931 51 902 51 872.8 51C843.7 51 814.3 51 785.2 51C756 51 727 51 698 51C669 51 640 51 611 51C582 51 553 51 523.8 51C494.7 51 465.3 51 436.2 51C407 51 378 51 349 51C320 51 291 51 262 51C233 51 204 51 174.8 51C145.7 51 116.3 51 87.2 51C58 51 29 51 14.5 51L0 51Z" fill="#D3EDF3" stroke-linecap="round" stroke-linejoin="miter"></path></svg>