<svg id="visual" viewBox="0 0 960 50" width="960" height="50" xmlns="http://www.w3.org/2000/svg" xmlns:xlink="http://www.w3.org/1999/xlink" version="1.1"><path d="M0 22L20 21.3C40 20.7 80 19.3 120 17.7C160 16 200 14 240 14.7C280 15.3 320 18.7 360 18.5C400 18.3 440 14.7 480 13C520 11.3 560 11.7 600 14.3C640 17 680 22 720 26.3C760 30.7 800 34.3 840 32C880 29.7 920 21.3 940 17.2L960 13L960 51L940 51C920 51 880 51 840 51C800 51 760 51 720 51C680 51 640 51 600 51C560 51 520 51 480 51C440 51 400 51 360 51C320 51 280 51 240 51C200 51 160 51 120 51C80 51 40 51 20 51L0 51Z" fill="#37395F" stroke-linecap="round" stroke-linejoin="miter"></path></svg>