<svg id="visual" viewBox="0 0 960 50" width="960" height="50" xmlns="http://www.w3.org/2000/svg" xmlns:xlink="http://www.w3.org/1999/xlink" version="1.1"><path d="M0 36L20 34.3C40 32.7 80 29.3 120 29.3C160 29.3 200 32.7 240 35C280 37.3 320 38.7 360 36.3C400 34 440 28 480 24.5C520 21 560 20 600 21.8C640 23.7 680 28.3 720 27C760 25.7 800 18.3 840 16.7C880 15 920 19 940 21L960 23L960 0L940 0C920 0 880 0 840 0C800 0 760 0 720 0C680 0 640 0 600 0C560 0 520 0 480 0C440 0 400 0 360 0C320 0 280 0 240 0C200 0 160 0 120 0C80 0 40 0 20 0L0 0Z" fill="#37395F" stroke-linecap="round" stroke-linejoin="miter"></path></svg>